<?xml version="1.0" encoding="UTF-8" standalone="no"?>
<svg
   height="210"
   width="210"
   viewBox="-449.84925 -222.507 682.27136 350.44853"
   version="1.1"
   id="svg612"
   xml:space="preserve"
   xmlns:xlink="http://www.w3.org/1999/xlink"
   xmlns="http://www.w3.org/2000/svg"
   xmlns:svg="http://www.w3.org/2000/svg"><defs
     id="defs566"><linearGradient
       id="a"
       y2="0.278"
       x2="0.25999999"
       y1="0.95599997"
       x1="0.61299998"><stop
         offset="0%"
         stop-color="#00A0FF"
         id="stop458" /><stop
         offset=".657%"
         stop-color="#00A1FF"
         id="stop460" /><stop
         offset="26.01%"
         stop-color="#00BEFF"
         id="stop462" /><stop
         offset="51.22%"
         stop-color="#00D2FF"
         id="stop464" /><stop
         offset="76.04%"
         stop-color="#00DFFF"
         id="stop466" /><stop
         offset="100%"
         stop-color="#00E3FF"
         id="stop468" /></linearGradient><linearGradient
       id="b"
       y2="0.509"
       x2="-1.3049999"
       y1="0.509"
       x1="1.076"><stop
         offset="0%"
         stop-color="#FFE000"
         id="stop471" /><stop
         offset="40.87%"
         stop-color="#FFBD00"
         id="stop473" /><stop
         offset="77.54%"
         stop-color="orange"
         id="stop475" /><stop
         offset="100%"
         stop-color="#FF9C00"
         id="stop477" /></linearGradient><linearGradient
       id="c"
       y2="-0.361"
       x2="-0.505"
       y1="0.69099998"
       x1="0.86699998"><stop
         offset="0%"
         stop-color="#FF3A44"
         id="stop480" /><stop
         offset="100%"
         stop-color="#C31162"
         id="stop482" /></linearGradient><linearGradient
       id="d"
       y2="0.64899999"
       x2="0.41800001"
       y1="1.119"
       x1="-0.193"><stop
         offset="0%"
         stop-color="#32A071"
         id="stop485" /><stop
         offset="6.85%"
         stop-color="#2DA771"
         id="stop487" /><stop
         offset="47.62%"
         stop-color="#15CF74"
         id="stop489" /><stop
         offset="80.09%"
         stop-color="#06E775"
         id="stop491" /><stop
         offset="100%"
         stop-color="#00F076"
         id="stop493" /></linearGradient><linearGradient
       id="e"
       y2="-0.021"
       x2="-0.50099999"
       y1="0.69499999"
       x1="0.86199999"><stop
         offset="0%"
         stop-color="#CC2E36"
         id="stop496" /><stop
         offset="100%"
         stop-color="#9C0E4E"
         id="stop498" /></linearGradient><linearGradient
       id="f"
       y2="4.4959998"
       x2="-0.66299999"
       y1="15.318"
       x1="3.073"><stop
         offset="0%"
         stop-color="#008DE0"
         id="stop501" /><stop
         offset=".657%"
         stop-color="#008DE0"
         id="stop503" /><stop
         offset="26.01%"
         stop-color="#00A7E0"
         id="stop505" /><stop
         offset="51.22%"
         stop-color="#00B8E0"
         id="stop507" /><stop
         offset="76.04%"
         stop-color="#00C4E0"
         id="stop509" /><stop
         offset="100%"
         stop-color="#00C7E0"
         id="stop511" /></linearGradient><linearGradient
       id="g"
       y2="1"
       x2="-2.882"
       y1="1"
       x1="1.128"><stop
         offset="0%"
         stop-color="#E0C500"
         id="stop514" /><stop
         offset="40.87%"
         stop-color="#E0A600"
         id="stop516" /><stop
         offset="77.54%"
         stop-color="#E09100"
         id="stop518" /><stop
         offset="100%"
         stop-color="#E08900"
         id="stop520" /></linearGradient><linearGradient
       id="h"
       y2="0"
       x2="-2.882"
       y1="0"
       x1="1.128"><stop
         offset="0%"
         stop-color="#FFE840"
         id="stop523" /><stop
         offset="40.87%"
         stop-color="#FFCE40"
         id="stop525" /><stop
         offset="77.54%"
         stop-color="#FFBC40"
         id="stop527" /><stop
         offset="100%"
         stop-color="#FFB540"
         id="stop529" /></linearGradient><linearGradient
       id="i"
       y2="-10.098"
       x2="-0.65700001"
       y1="0.234"
       x1="3.0610001"><stop
         offset="0%"
         stop-color="#40B8FF"
         id="stop532" /><stop
         offset=".657%"
         stop-color="#40B9FF"
         id="stop534" /><stop
         offset="26.01%"
         stop-color="#40CEFF"
         id="stop536" /><stop
         offset="51.22%"
         stop-color="#40DDFF"
         id="stop538" /><stop
         offset="76.04%"
         stop-color="#40E7FF"
         id="stop540" /><stop
         offset="100%"
         stop-color="#40EAFF"
         id="stop542" /></linearGradient><linearGradient
       id="j"
       y2="0.537"
       x2="0.421"
       y1="0.85600001"
       x1="-0.18799999"><stop
         offset="0%"
         stop-color="#65B895"
         id="stop545" /><stop
         offset="6.85%"
         stop-color="#62BD95"
         id="stop547" /><stop
         offset="47.62%"
         stop-color="#50DB97"
         id="stop549" /><stop
         offset="80.09%"
         stop-color="#44ED98"
         id="stop551" /><stop
         offset="100%"
         stop-color="#40F498"
         id="stop553" /></linearGradient><linearGradient
       gradientUnits="userSpaceOnUse"
       gradientTransform="scale(0.72167,1.38567)"
       y2="110.924"
       x2="103.763"
       y1="380.41299"
       x1="243.89"
       id="k"
       xlink:href="#a" /><linearGradient
       gradientUnits="userSpaceOnUse"
       gradientTransform="scale(1.1083,0.90228)"
       y2="104.456"
       x2="-265.185"
       y1="104.456"
       x1="219.82001"
       id="l"
       xlink:href="#b" /><linearGradient
       gradientUnits="userSpaceOnUse"
       gradientTransform="scale(1.13894,0.878)"
       y2="-116.045"
       x2="-162.25999"
       y1="222.80299"
       x1="279.815"
       id="m"
       xlink:href="#c" /><linearGradient
       gradientUnits="userSpaceOnUse"
       gradientTransform="scale(1.13896,0.878)"
       y2="210.03"
       x2="134.98399"
       y1="361.33499"
       x1="-62.115002"
       id="n"
       xlink:href="#d" /><linearGradient
       gradientUnits="userSpaceOnUse"
       gradientTransform="scale(1.38147,0.72387)"
       y2="-4.388"
       x2="-133.972"
       y1="187.683"
       x1="231.994"
       id="o"
       xlink:href="#e" /><linearGradient
       gradientUnits="userSpaceOnUse"
       gradientTransform="scale(0.58803,1.7006)"
       y2="91.690002"
       x2="-13.255"
       y1="311.27399"
       x1="62.549"
       id="p"
       xlink:href="#f" /><linearGradient
       gradientUnits="userSpaceOnUse"
       gradientTransform="scale(1.19442,0.83723)"
       y2="112.451"
       x2="-322.92401"
       y1="112.451"
       x1="127.112"
       id="q"
       xlink:href="#g" /><linearGradient
       gradientUnits="userSpaceOnUse"
       gradientTransform="scale(1.1944,0.83724)"
       y2="0.829"
       x2="-322.92801"
       y1="0.829"
       x1="127.114"
       id="r"
       xlink:href="#h" /><linearGradient
       gradientUnits="userSpaceOnUse"
       gradientTransform="scale(0.58722,1.70294)"
       y2="-204.589"
       x2="-13.13"
       y1="4.8779998"
       x1="62.249001"
       id="s"
       xlink:href="#i" /><linearGradient
       gradientUnits="userSpaceOnUse"
       gradientTransform="scale(1.38144,0.72388)"
       y2="144.927"
       x2="113.528"
       y1="230.7"
       x1="-49.894001"
       id="t"
       xlink:href="#j" /><linearGradient
       gradientUnits="userSpaceOnUse"
       gradientTransform="matrix(1.2119652,0,0,-0.90974952,656.73818,495.25679)"
       y2="112.451"
       x2="-322.924"
       y1="112.451"
       x1="127.112"
       id="q-4"
       xlink:href="#g" /><linearGradient
       gradientUnits="userSpaceOnUse"
       gradientTransform="matrix(0.73227083,0,0,-1.5056945,272.80714,692.72904)"
       y2="110.924"
       x2="103.763"
       y1="380.41299"
       x1="243.89"
       id="k-8"
       xlink:href="#a" /><linearGradient
       gradientUnits="userSpaceOnUse"
       gradientTransform="matrix(1.1245802,0,0,-0.98043405,563.58767,493.62687)"
       y2="104.456"
       x2="-265.185"
       y1="104.456"
       x1="219.82001"
       id="l-1"
       xlink:href="#b" /><linearGradient
       gradientUnits="userSpaceOnUse"
       gradientTransform="matrix(1.1556702,0,0,-0.95405096,284.58566,700.4712)"
       y2="-116.045"
       x2="-162.25999"
       y1="222.80299"
       x1="279.815"
       id="m-1"
       xlink:href="#c" /><linearGradient
       gradientUnits="userSpaceOnUse"
       gradientTransform="matrix(1.1556905,0,0,-0.95405096,284.8099,393.71013)"
       y2="210.03"
       x2="134.98399"
       y1="361.33499"
       x1="-62.115002"
       id="n-4"
       xlink:href="#d" /><linearGradient
       gradientUnits="userSpaceOnUse"
       gradientTransform="matrix(1.4017628,0,0,-0.78657046,282.55628,704.81767)"
       y2="-4.388"
       x2="-133.972"
       y1="187.683"
       x1="231.994"
       id="o-1"
       xlink:href="#e" /><linearGradient
       gradientUnits="userSpaceOnUse"
       gradientTransform="matrix(0.59666775,0,0,-1.8479033,272.80714,695.14677)"
       y2="91.690002"
       x2="-13.255"
       y1="311.27399"
       x1="62.549"
       id="p-9"
       xlink:href="#f" /><linearGradient
       gradientUnits="userSpaceOnUse"
       gradientTransform="matrix(1.2119449,0,0,-0.90976039,656.73818,393.71013)"
       y2="0.829"
       x2="-322.92801"
       y1="0.829"
       x1="127.114"
       id="r-8"
       xlink:href="#h" /><linearGradient
       gradientUnits="userSpaceOnUse"
       gradientTransform="matrix(0.59584585,0,0,-1.8504459,272.80714,129.38043)"
       y2="-204.589"
       x2="-13.13"
       y1="4.8779998"
       x1="62.249001"
       id="s-2"
       xlink:href="#i" /><linearGradient
       gradientUnits="userSpaceOnUse"
       gradientTransform="matrix(1.4017324,0,0,-0.78658133,282.55628,293.79122)"
       y2="144.927"
       x2="113.528"
       y1="230.7"
       x1="-49.894001"
       id="t-1"
       xlink:href="#j" /></defs><path
     style="fill:#ffffff;stroke-width:0.832088"
     d="m -181.66761,260.03064 v -23.29846 h 4.57649 c 4.43167,0 4.57728,0.0724 4.60179,2.28824 0.0225,2.03083 0.12562,2.11566 0.91706,0.75412 1.21171,-2.08452 5.77369,-3.87445 9.87478,-3.87445 9.30921,0 15.00087,7.09137 14.95931,18.63812 -0.0293,8.14198 -4.50838,15.32558 -10.49208,16.82739 -3.78726,0.95055 -10.21943,-0.15969 -12.31144,-2.12503 -2.51515,-2.36286 -3.12545,-1.38607 -2.96304,4.74235 0.26482,9.99285 0.58214,9.34619 -4.58638,9.34619 h -4.57649 z m 21.139,4.04515 c 6.43291,-2.93103 5.9801,-17.42449 -0.64267,-20.57023 -5.12634,-2.43496 -10.33687,1.51495 -11.11591,8.42652 -1.03605,9.19187 4.86395,15.28512 11.75858,12.14371 z m -119.17208,7.58619 c -7.21828,-1.49968 -13.97998,-7.73687 -16.45026,-15.17419 -2.15096,-6.47592 -1.35353,-16.41386 1.7838,-22.23066 2.72668,-5.05542 7.91692,-9.48259 12.66198,-10.80041 5.45763,-1.51572 12.66251,-1.05272 17.24481,1.10818 4.84372,2.28419 7.31897,4.73726 9.11325,9.03158 2.16772,5.18808 1.89175,5.63196 -3.50156,5.63196 -4.49039,0 -4.85644,-0.15145 -5.86318,-2.42583 -1.5801,-3.56969 -4.8802,-5.40078 -9.73357,-5.40078 -5.14111,0 -8.20461,1.87756 -10.60166,6.49756 -2.4343,4.6918 -2.54005,13.73877 -0.21479,18.37587 5.09491,10.16043 18.88786,9.23408 21.51782,-1.44517 0.53647,-2.17839 0.80244,-2.28824 5.5402,-2.28824 5.59808,0 5.68101,0.13273 3.70533,5.93102 -3.43112,10.06976 -13.88467,15.54045 -25.20217,13.18911 z m 40.16854,-1.54615 c -12.91432,-5.86616 -12.72468,-26.99333 0.29399,-32.75211 5.32196,-2.35416 13.79418,-1.73938 18.44509,1.33844 10.49474,6.94509 9.52872,25.47242 -1.62185,31.10552 -4.69389,2.37127 -12.27482,2.50774 -17.11723,0.30815 z m 13.17013,-6.76571 c 3.63245,-2.85729 4.46276,-11.82834 1.58909,-17.16943 -2.10905,-3.91994 -9.68216,-4.28869 -12.57405,-0.61224 -2.04389,2.59836 -2.87132,8.5769 -1.75886,12.70829 1.65086,6.13082 8.12359,8.70765 12.74382,5.07338 z m 92.53947,6.75708 c -4.28026,-1.97547 -6.69956,-4.64917 -8.29275,-9.16475 -3.39907,-9.634 0.34148,-19.94669 8.55232,-23.57873 4.98245,-2.20397 13.57374,-1.7316 17.97462,0.98828 10.99973,6.79822 10.07193,26.48286 -1.49583,31.73599 -4.51294,2.04942 -12.32009,2.05837 -16.73836,0.0192 z m 13.13384,-6.75561 c 3.75103,-2.95057 4.53142,-11.66711 1.54425,-17.24866 -0.53725,-1.00388 -2.43746,-2.26122 -4.22819,-2.79774 -6.74707,-2.02147 -11.61816,4.03984 -10.39728,12.93778 1.04611,7.62427 7.7762,11.28154 13.08122,7.10862 z m 47.379824,6.66061 c -4.49675,-2.74166 -5.72834,-8.95529 -2.74483,-13.8482 1.78665,-2.93005 4.28386,-3.95449 12.92648,-5.30284 6.44137,-1.00493 7.94302,-1.84893 7.92427,-4.45383 -0.0186,-2.5795 -0.91644,-3.57231 -3.79513,-4.19641 -3.42844,-0.74328 -6.86003,0.67708 -7.83569,3.24326 -0.70359,1.85058 -1.27889,2.09514 -4.9285,2.09514 -2.27256,0 -4.36828,-0.38242 -4.65714,-0.84981 -0.94647,-1.53143 2.44436,-6.97228 5.41953,-8.69603 2.37869,-1.37818 4.38763,-1.68735 10.96414,-1.68735 6.86322,0 8.39864,0.25672 10.4011,1.73901 3.83164,2.83633 4.29559,4.78858 4.58,19.27235 l 0.26553,13.52255 -4.39458,-8.3e-4 c -3.09988,-8e-4 -4.53299,-0.36182 -4.86438,-1.22542 -0.39935,-1.04068 -0.95204,-0.97828 -3.68514,0.41604 -4.37289,2.23089 -11.89349,2.21769 -15.57566,-0.0273 z m 15.63874,-5.66704 c 1.21058,-0.98026 2.07248,-2.87792 2.45654,-5.40857 0.3254,-2.14416 0.40084,-3.89848 0.16764,-3.89848 -0.2332,0 -2.80139,0.41401 -5.7071,0.92002 -5.40318,0.94092 -7.75057,2.72015 -7.75057,5.87465 0,3.61338 7.36463,5.3213 10.83349,2.51238 z m 27.75398,6.77925 c -0.97283,-0.2009 -2.65781,-1.31136 -3.74439,-2.46769 -1.83809,-1.95608 -2.00456,-2.92316 -2.39165,-13.89315 l -0.41604,-11.79073 -2.28824,-0.26329 c -1.99155,-0.22916 -2.28825,-0.62691 -2.28825,-3.06761 0,-2.5457 0.24552,-2.82837 2.66219,-3.06506 l 2.66219,-0.26075 -0.22115,-4.67428 c -0.26373,-5.57452 0.16993,-5.81966 8.83425,-4.99386 0.7055,0.0672 1.04011,1.70524 1.04011,5.09166 v 4.99253 h 3.32835 c 3.2491,0 3.32835,0.0693 3.32835,2.91231 0,2.84297 -0.0792,2.9123 -3.32835,2.9123 h -3.32835 v 10.31208 c 0,11.11695 0.0851,11.32221 4.69238,11.32221 1.90895,0 2.04125,0.25932 1.80414,3.53638 l -0.25586,3.53637 -4.16044,0.11292 c -2.28824,0.0621 -4.9564,-0.0514 -5.92924,-0.25234 z m 42.84986,-1.06987 c -12.4941097,-6.78338 -12.0091597,-27.03228 0.7829,-32.69082 5.35414,-2.36839 13.85822,-1.74204 18.31895,1.34925 4.92162,3.41069 7.14438,8.09015 7.16164,15.07701 0.0179,7.22645 -2.18079,11.87511 -7.18179,15.18468 -4.64133,3.07156 -14.39647,3.62362 -19.0817,1.07988 z m 12.07854,-5.82771 c 2.94313,-1.11898 4.67051,-4.97904 4.67051,-10.43685 0,-5.94507 -1.64622,-9.15941 -5.31032,-10.36867 -5.73704,-1.8934 -9.95619,1.18593 -10.98009,8.01379 -1.39562,9.30664 4.29873,15.57524 11.6199,12.79173 z M -207.46233,253.78998 v -17.0578 h 4.57648 4.57648 v 3.02452 3.02452 l 1.73765,-2.20906 c 2.21767,-2.81931 5.80186,-4.67207 9.03818,-4.67207 2.49038,0 2.53758,0.0774 2.53758,4.16044 0,4.01959 -0.0803,4.16044 -2.3721,4.16044 -4.11745,0 -7.59071,1.70864 -9.06342,4.45868 -1.01222,1.89017 -1.49034,5.32157 -1.72653,12.3911 l -0.32664,9.77704 h -4.48884 -4.48884 z m 105.67517,0 v -17.0578 h 4.576484 4.57649 v 3.02452 3.02452 l 1.73765,-2.20906 c 2.21766,-2.81931 5.80186,-4.67207 9.03817,-4.67207 2.49038,0 2.53759,0.0774 2.53759,4.16044 0,4.01959 -0.0803,4.16044 -2.3721,4.16044 -4.11746,0 -7.59072,1.70864 -9.06342,4.45868 -1.01223,1.89017 -1.49035,5.32157 -1.72654,12.3911 l -0.32663,9.77704 h -4.48885 -4.488844 z m 89.865504,0 v -17.0578 h 4.5764903 4.57648 v 17.0578 17.05781 h -4.57648 -4.5764903 z m 57.41408,0 v -17.0578 h 4.57648 c 4.4064,0 4.57648,0.0827 4.57648,2.22526 v 2.22527 l 1.8722,-1.70524 c 3.0044,-2.73648 5.24334,-3.57759 9.51431,-3.57427 5.03575,0.004 9.10023,2.36699 10.7139,6.22905 0.86819,2.07788 1.19806,6.4258 1.19806,15.79145 v 12.92409 h -4.5151 -4.5151 l -0.26941,-11.98058 c -0.23345,-10.3816 -0.48096,-12.21399 -1.85452,-13.72945 -2.37938,-2.6252 -7.35485,-2.39502 -9.58768,0.44356 -1.55636,1.97859 -1.72457,3.3177 -1.72457,13.72945 v 11.53702 h -4.99253 -4.99252 z m -57.41408,-26.62681 v -3.7444 h 4.5764903 4.57648 v 3.7444 3.74439 h -4.57648 -4.5764903 z M -296.49575,178.90206 v -12.06528 h 187.2198 187.219804 v 12.06528 12.06528 H -109.27595 -296.49575 Z M 61.327074,149.96261 c -1.13039,-0.57198 -2.94235,-2.34505 -4.02658,-3.94015 -1.60774,-2.36528 -1.90067,-3.65801 -1.58824,-7.00901 0.31793,-3.41002 0.89454,-4.57755 3.39028,-6.86473 2.48578,-2.27805 3.66574,-2.7559 6.80514,-2.7559 7.01865,0 11.3127,3.89455 11.41027,10.3487 0.12786,8.4578 -8.534,13.99431 -15.99087,10.22109 z m 10.00616,-1.45643 c 2.18456,-1.16914 4.115,-5.14293 4.11124,-8.46292 -0.007,-6.22969 -5.99939,-10.97127 -11.31824,-8.95581 -7.59212,2.87685 -9.20398,11.77153 -3.01534,16.63951 2.27876,1.79247 7.57475,2.19617 10.22234,0.77922 z m -9.19905,-8.29622 v -6.6567 h 3.69721 c 2.82085,0 3.98936,0.41711 4.92976,1.7597 1.32788,1.89581 0.94665,3.93098 -1.01132,5.39894 -1.07059,0.80265 -1.05094,1.16564 0.15646,2.88943 0.75947,1.08429 1.38085,2.26257 1.38085,2.6184 0,1.44679 -1.35543,0.46068 -3.12797,-2.27567 -2.4827,-3.83264 -4.36082,-3.8282 -4.36082,0.0103 0,1.60177 -0.37444,2.91231 -0.83209,2.91231 -0.48538,0 -0.83208,-2.77363 -0.83208,-6.65671 z m 7.07274,-2.9123 c 0,-1.29437 -0.55472,-1.66418 -2.49626,-1.66418 -1.97747,0 -2.5531,0.40107 -2.76971,1.9298 -0.24489,1.72832 0.0157,1.90207 2.49627,1.66417 2.12644,-0.20393 2.7697,-0.65212 2.7697,-1.92979 z M -123.83749,126.38372 c -22.52806,-1.82176 -46.93096,-8.53899 -67.44224,-18.56442 -50.12558,-24.500178 -85.96802,-68.566361 -99.7807,-122.674535 -3.87282,-15.17092 -5.43605,-28.578413 -5.43149,-46.584474 0.007,-29.663516 5.94542,-55.545501 18.73834,-81.676301 18.36629,-37.51498 47.60953,-66.84497 85.40924,-85.66264 87.54315,-43.58121 194.1834543,-11.97717 244.477564,72.45365 10.19015,17.10663 18.12815,37.53168 22.11115,56.893605 2.94011,14.29232 3.78706,22.94555 3.78706,38.692088 0,7.828334 -0.40918,17.583535 -0.90929,21.678207 -10.14479,83.060193 -72.8545197,149.15465 -154.77875,163.13284 -11.84253,2.02061 -35.276334,3.1938 -46.180884,2.31198 z m 37.151194,-25.75161 c 61.00211,-8.508323 112.32913,-51.195629 131.75273,-109.5752087 14.0973,-42.3708813 10.69488,-86.8194463 -9.66548,-126.2680813 -22.9264,-44.42038 -63.41504,-74.96573 -113.05756,-85.29263 -14.21793,-2.95769 -37.321844,-3.71618 -52.401224,-1.72028 -47.89038,6.33872 -89.74077,32.67319 -115.94796,72.96056 -48.52071,74.589145 -27.8786,174.204138 46.44829,224.150805 19.22768,12.920746 43.80688,22.334949 67.23369,25.751525 10.85492,1.58308 34.263934,1.57965 45.637514,-0.007 z M -187.49222,-60.739307 V -167.66261 h 49.42107 c 28.48018,0 53.072334,0.3701 58.038144,0.87345 18.77727,1.90332 26.71596,5.13268 36.52667,14.85863 10.26786,10.17914 14.95382,21.68366 14.93063,36.65626 -0.032,20.689695 -9.08877,36.154135 -26.69938,45.589509 -2.77554,1.487074 -4.54717,2.862166 -3.93695,3.055752 0.61022,0.193593 3.16892,0.98847 5.68598,1.766398 21.04077,6.502851 34.05093,25.311311 34.10117,49.299161 0.0629,30.042847 -19.32055,54.125648 -48.39223,60.124494 -7.20419,1.486558 -11.76237,1.601886 -63.717184,1.612029 l -55.95792,0.01093 z m 111.949034,81.518285 c 7.42454,-1.908004 13.25846,-5.174573 17.78011,-9.955551 7.43215,-7.8583977 10.52095,-17.1780577 9.83911,-29.686946 -0.87529,-16.058077 -9.58854,-26.014102 -26.96635,-30.812562 -6.14834,-1.697709 -8.67567,-1.816074 -45.410804,-2.126684 l -38.90011,-0.328924 v 37.092571 37.092572 h 39.34936 c 32.625434,0 40.196794,-0.217782 44.308684,-1.274476 z m -9.05134,-98.154513 c 18.72072,-3.56681 27.74012,-14.25512 27.74012,-32.873005 0,-12.53736 -3.97497,-21.51874 -11.85456,-26.78518 -8.9078,-5.95365 -21.07942,-7.34659 -63.657424,-7.28509 l -26.83484,0.0388 v 34.07357 34.073555 h 34.04241 c 26.726294,0 35.444044,-0.26705 40.564294,-1.2426 z M -274.62345,-281.15568 c -14.25992,-4.64353 -22.70195,-17.2229 -22.67417,-33.78652 0.0125,-7.45932 0.97525,-12.02408 3.79156,-17.97725 8.73704,-18.4686 35.00694,-23.58249 50.27666,-9.78722 3.19774,2.88896 6.81404,9.27549 7.8294,13.827 l 0.51046,2.28824 -7.29662,-0.008 -7.29662,-0.008 -1.36299,-3.24644 c -2.08508,-4.96633 -7.13997,-7.93809 -13.53261,-7.95578 -6.68253,-0.0185 -10.81206,2.04716 -13.93405,6.97002 -3.18166,5.01695 -4.02762,8.38873 -4.03318,16.07516 -0.0102,14.05177 6.59992,22.28962 17.88525,22.28962 2.56252,0 5.71925,-0.54821 7.01495,-1.21824 3.43928,-1.77852 6.63511,-5.94983 7.74888,-10.1141 l 0.97495,-3.64524 h 7.01327 7.01328 l -0.51668,3.76956 c -1.20847,8.81672 -7.92827,17.70258 -16.20512,21.42866 -4.91797,2.21399 -17.8959,2.82886 -23.20662,1.0995 z m 60.08837,-0.003 c -11.02558,-3.48694 -17.05781,-12.00773 -17.05781,-24.09493 0,-8.68353 1.91327,-13.54548 7.47304,-18.99033 7.18277,-7.0343 15.12771,-8.93834 25.03539,-5.99983 8.9016,2.64012 15.75268,12.74642 15.75268,23.23738 v 4.54527 h -17.47385 c -17.01118,0 -17.47385,0.0448 -17.47385,1.69091 0,2.78908 2.22807,7.24807 4.29896,8.60342 5.08594,3.32863 13.14759,2.35722 16.83833,-2.02899 1.89138,-2.24777 2.48998,-2.44072 7.5721,-2.44072 5.33915,0 5.49961,0.0608 4.94083,1.8722 -3.48057,11.2831 -17.32864,17.58326 -29.90582,13.60562 z m 17.88989,-31.16444 c 0,-2.18442 -3.41644,-6.98033 -5.8496,-8.21152 -4.93965,-2.4995 -11.954,-0.23399 -14.49616,4.682 -2.57153,4.9728 -2.38766,5.07064 9.52862,5.07064 9.97452,0 10.81714,-0.12004 10.81714,-1.54112 z m 189.3000243,31.21848 c -7.5016403,-2.49427 -11.1975903,-5.56713 -14.6780203,-12.20351 -2.75124,-5.24596 -2.85895,-18.45068 -0.19745,-24.20493 2.25639,-4.87837 7.02063,-9.63936 11.88878,-11.88065 5.4591603,-2.5134 16.5863903,-2.49519 21.29262,0.0349 7.55478,4.0614 12.1132,11.53741 12.72229,20.86513 l 0.39392,6.03264 H 6.3848343 -11.307306 l 0.48688,3.00032 c 0.6718,4.13981 2.6768803,6.90991 6.0095103,8.30237 5.43695,2.2717 11.84607,0.87486 15.1276597,-3.29702 1.54494,-1.96408 2.26804,-2.18105 7.26853,-2.18105 5.37185,0 5.53443,0.0611 4.98593,1.8722 -1.58274,5.22614 -6.45598,10.59011 -11.55729,12.72107 -4.4064197,1.8407 -14.1481197,2.33873 -18.3590797,0.93859 z m 17.5264997,-31.9656 c -0.2990897,-1.25853 -1.2182697,-3.22434 -2.0426197,-4.36846 -5.11717,-7.10218 -17.19654,-4.54208 -18.9063603,4.00702 l -0.52994,2.64968 H -0.2862257 10.725134 Z m 33.25955,32.08146 c -4.637,-1.29325 -11.39169,-8.22744 -13.22319,-13.57456 -6.01211,-17.55264 2.17793,-35.22263 17.03114,-36.7446 5.77949,-0.59221 10.83726,0.80683 14.48023,4.00539 l 2.90138,2.54745 v -12.15147 -12.15148 h 6.6567 6.65671 v 33.69957 33.69957 h -6.24066 -6.24066 l -0.004,-3.12033 -0.004,-3.12033 -1.86807,2.21705 c -3.90493,4.63446 -12.8691,6.72305 -20.14532,4.69374 z m 14.99439,-10.31651 c 8.45252,-4.01098 8.81948,-24.00093 0.52938,-28.8377 -5.33838,-3.11461 -12.39811,-0.9551 -15.33545,4.69099 -2.41064,4.63367 -2.50232,13.68476 -0.18627,18.38847 3.06383,6.22238 9.11583,8.54683 14.99234,5.75824 z m -183.861274,9.26285 c -6.68497,-2.41601 -6.70046,-2.46499 -6.9871,-22.10415 l -0.25472,-17.45255 h -4.11374 -4.11373 v -4.11485 -4.11485 l 3.95241,-0.25361 3.95242,-0.25361 0.24042,-7.28078 0.24042,-7.28077 h 6.6243 6.62431 v 7.47899 c 0,6.6146 0.1683,7.46487 1.45616,7.35695 0.80088,-0.0672 3.04752,-0.0627 4.99253,0.01 l 3.53637,0.13183 v 4.16044 4.16044 h -4.99253 -4.99253 v 13.36811 c 0,7.62374 0.37014,14.05972 0.86136,14.97758 0.67574,1.26262 1.76023,1.60948 5.03224,1.60948 h 4.17087 l -0.24772,5.20055 -0.24773,5.20055 -6.24066,0.18799 c -3.75562,0.11313 -7.53589,-0.28012 -9.49335,-0.98756 z m -51.24908,-23.74703 v -24.13055 h 6.24066 6.24066 v 4.35359 4.3536 l 2.05244,-3.02043 c 2.96737,-4.36687 7.1731,-6.69104 12.34833,-6.82393 l 4.32121,-0.11096 0.24448,6.03264 0.24447,6.03263 -4.40491,0.002 c -5.5322,0.002 -9.65924,2.0271 -11.8654,5.82332 -1.48775,2.56002 -1.72596,4.64861 -1.96924,17.26583 l -0.27676,14.35352 h -6.58796 -6.58798 v -24.13055 z m 75.08338,-0.20802 0.22059,-24.33857 h 6.656704 6.6567 l 0.22059,24.33857 0.22059,24.33858 h -7.09788 -7.097894 z m 27.263444,4.36846 v -19.97011 h -4.16044 -4.16044 v -4.11485 -4.11485 l 3.95242,-0.25361 3.95242,-0.25361 0.41632,-4.57649 c 0.86835,-9.54555 5.39312,-13.41441 16.36197,-13.99013 l 6.93622,-0.36406 v 5.09688 5.09687 h -3.14321 c -4.67583,0 -6.84185,1.87845 -6.84185,5.93349 v 3.34286 l 4.36846,-0.23537 4.36847,-0.23538 0.2515,4.33413 0.25151,4.33412 h -4.61997 -4.61997 v 19.97011 19.97012 h -6.6567 -6.65671 z m 31.8148,-4.36846 0.22059,-24.33857 6.44868,-0.24302 6.44869,-0.24303 v 24.5816 24.5816 h -6.66927 -6.66928 z m -59.105384,-37.44396 0.24773,-5.20055 h 6.656704 6.6567 l 0.24773,5.20055 0.24772,5.20055 h -7.15215 -7.152154 z m 58.909934,-0.20802 v -5.40858 h 6.6567 6.65671 v 5.40858 5.40857 h -6.65671 -6.6567 z"
     id="path476" /></svg>
