<svg xmlns="http://www.w3.org/2000/svg" xmlns:xlink="http://www.w3.org/1999/xlink" width="428px" height="130px" viewBox="0 0 428 130" version="1.1">
    <title>Layer_1</title>
    <g id="Page-1" stroke="none" stroke-width="1" fill="none" fill-rule="evenodd">
        <g id="Layer_1" transform="translate(0, 1)" fill-rule="nonzero">
            <g id="Group">
                <path d="M315.9,90.3 C315.8,89.7 315.2,89.4 314.6,89.5 C313.2,89.8 312.1,90 311.3,90 C309.6,90 308.7,88.8 308.7,86.4 L308.7,56.5 C308.7,49.6 307,44.5 303.5,41.3 C299.8,37.8 293.9,36.1 285.7,36.1 C277.5,36.1 270.6,38.1 261.4,42 C260.8,42.2 260.6,42.9 260.8,43.5 L263.5,49.6 C263.7,50.1 264.4,50.4 264.9,50.2 C270.2,48.1 275.5,47 280.7,47 C288.1,47 291.8,50.4 291.8,57.3 L291.8,60 C291.8,60.7 291.1,61.2 290.4,61.1 C286.3,60.2 282.6,59.7 279.3,59.7 C271.9,59.7 266.1,61.2 262,64.2 C257.2,67.9 254.8,73 254.8,79.7 C254.8,94.3 262.4,101.7 277.6,101.7 C292.8,101.7 286.8,99.9 291.9,96.3 C292.4,95.9 293.1,96.1 293.4,96.6 C295.8,100 299.5,101.7 304.4,101.7 C309.3,101.7 315.1,98.2 316.8,96.9 C317.2,96.6 317.3,96.2 317.2,95.8 L315.8,90.6 L315.8,90.6 L315.9,90.3 Z M291.9,86.5 C288,88.9 284.6,90.1 281.5,90.1 C275.4,90.1 272.4,86.8 272.4,80.1 C272.4,73.4 275.5,69.4 281.6,69.4 C287.7,69.4 287.6,69.9 291.8,71 L291.8,86.5 L291.8,86.5 L291.9,86.5 Z M420.5,66.1 C419.7,65.6 418.2,64.9 416,64 C413.8,63.1 410.8,62 407.2,60.6 C405.1,59.8 403.5,59.2 402.4,58.8 C401.3,58.4 400.6,58.1 400.4,58 C397.3,56.4 395.8,54.7 395.8,52.9 C395.8,49.2 399.1,47.4 405.6,47.4 C412.1,47.4 415.7,48.7 422.1,51.3 C422.5,51.5 423.1,51.3 423.3,50.8 L426.8,43.4 C427,43 426.8,42.5 426.4,42.2 C419,38.1 411.8,36 404.6,36 C397.4,36 391.5,37.5 387,40.6 C382.2,44 379.8,48.6 379.8,54.5 C379.8,60.4 381.6,64.4 385.1,67.6 C387.7,69.9 391.6,72 396.8,73.8 C400.1,74.9 402.6,75.7 404.2,76.3 C405.9,76.9 406.8,77.3 407,77.4 C410.1,78.8 411.6,80.8 411.6,83.2 C411.6,87.4 408.2,89.6 401.5,89.6 C394.8,89.6 389.1,88 382.3,84.9 C381.9,84.7 381.4,84.9 381.1,85.3 L377.3,92.1 C377.1,92.5 377.2,93.1 377.6,93.3 C386.5,98.7 395,101.4 403.1,101.4 C411.2,101.4 416.1,99.7 420.6,96.3 C425.4,92.5 427.8,87.3 427.8,80.7 C427.8,74.1 425.3,69.4 420.3,66.1 L420.3,66.1 L420.5,66.1 Z M242.9,38.4 L230.4,77 L217.8,38.4 C217.6,37.8 217,37.4 216.4,37.4 L203.8,37.4 C203.2,37.4 202.6,37.8 202.4,38.4 L189.9,77 L177.3,38.4 C177.1,37.8 176.5,37.4 175.9,37.4 L164.2,37.4 C163.2,37.4 162.5,38.4 162.8,39.3 L182.1,98.6 C182.3,99.2 182.9,99.6 183.5,99.6 L196.2,99.6 C196.8,99.6 197.4,99.2 197.6,98.6 L210.1,60.1 L222.7,98.6 C222.9,99.2 223.5,99.6 224.1,99.6 L236.7,99.6 C237.3,99.6 237.9,99.2 238.1,98.6 L257.4,39.3 C257.7,38.3 257,37.4 256,37.4 L244.3,37.4 C243.7,37.4 243.1,37.8 242.9,38.4 L242.9,38.4 L242.9,38.4 Z M111.7,37.8 L92.5,37.8 L92.5,26.7 C92.5,17 96.2,12.1 103.5,12.1 C110.8,12.1 110.1,12.8 115.4,14.2 C116.5,14.5 117.6,13.9 118,12.9 L120.5,7.1 C120.9,6.3 120.5,5.3 119.7,5 C112.6,1.6 106.1,-0.1 100,-0.1 C83.4,-0.1 75.1,9 75.1,27.2 L75.1,92 C75.1,96.2 78.5,99.5 82.7,99.5 L91.1,99.5 C91.9,99.5 92.5,98.9 92.5,98.1 L92.5,50.4 L103.4,50.4 C104.4,50.4 105.4,49.8 105.8,48.9 C107.1,46.2 108.7,43.7 110.7,41.5 C111.3,40.8 111.9,40.2 112.5,39.6 C113.2,38.9 112.7,37.7 111.7,37.7 L111.7,37.7 L111.7,37.8 Z M24,89.3 C19.8,89.3 17.6,86.4 17.6,80.5 L17.6,4.3 C17.6,3 16.2,2.1 15,2.7 L4.6,8.2 C1.8,9.8 0,12.8 0,16 L0,80 C0,94.2 6.4,101.4 19.4,101.4 C32.4,101.4 29.7,99.9 35.3,96.9 C35.9,96.6 36.1,95.9 35.9,95.3 L33.9,89.2 C33.6,88.3 32.6,87.8 31.7,88 C28.7,88.8 26.2,89.2 24,89.2 L24,89.2 L24,89.3 Z M137.5,36.1 C127.6,36.1 120,39.1 114.7,45.2 C109.7,50.8 107.2,58.6 107.2,68.7 C107.2,78.8 109.8,86.8 114.8,92.5 C120.1,98.4 127.7,101.3 137.5,101.3 C147.3,101.3 152.6,98.6 161.3,93.1 C161.8,92.8 162,92.1 161.7,91.5 L158.7,85.4 C158.4,84.8 157.7,84.5 157,84.8 C149.7,87.7 143.6,89.1 138.6,89.1 C133.6,89.1 132,87.8 129.6,85.2 C126.5,82.1 124.8,77.7 124.5,72.1 L161.3,72.1 C162.4,72.1 163.3,71.2 163.3,70.1 L163.3,64.8 C163.3,45.6 154.7,36 137.4,36 L137.4,36 L137.5,36.1 Z M125.3,61.1 C126.4,51.7 130.4,46.9 137.4,46.9 C144.4,46.9 148.1,51.6 148.1,61.1 L125.3,61.1 L125.3,61.1 Z M62,89.3 C57.8,89.3 55.6,86.4 55.6,80.5 L55.6,39.4 C55.6,38.4 54.8,37.6 53.8,37.6 L39.7,37.6 C38.7,37.6 37.9,38.4 37.9,39.4 L37.9,80 C37.9,94.2 44.3,101.4 57.3,101.4 C70.3,101.4 66.1,100.3 70.9,98 C71.7,97.6 72.1,96.7 71.8,95.9 L69.7,89.6 C69.4,88.7 68.5,88.2 67.6,88.5 C65.5,89 63.5,89.2 61.9,89.2 L62,89.3 Z M357.7,69.6 C357.7,73.3 357.4,77.1 355.6,79.8 C354,82.5 351.1,84.5 346.9,84.5 C342.7,84.5 340.3,82.7 339,80.3 C337.7,78.1 337.5,75.3 337.5,71.9 L337.5,38.6 C337.5,37.9 336.9,37.3 336.2,37.3 L322.5,37.3 C321.8,37.3 321.2,37.9 321.2,38.6 L321.2,79.8 C321.2,104.5 346.5,96.6 353.9,93.8 C354.8,93.4 355.8,94.2 355.6,95.2 C354.6,101.3 350.7,117.9 338.4,117.9 C326.1,117.9 327.8,116.3 327.3,111.3 C327.2,109.8 327.3,108.4 328.1,107.1 C328.8,105.9 329.8,105.3 328.9,103.8 C328.6,103.3 328.1,102.8 327.6,102.4 C326.9,101.7 326.2,101.1 325.3,100.6 C324.8,100.3 324.3,100.1 323.7,100 C316.9,98.2 313.1,108 313.7,113.4 C314.8,124.1 325.7,129.5 339.3,127.8 C370,123.8 372.3,95 372.8,77.2 L372.8,38.7 C372.8,38 372.2,37.4 371.5,37.4 L358.9,37.4 C358.2,37.4 357.6,38 357.6,38.7 L357.6,69.7 L357.6,69.7 L357.7,69.6 Z" id="Shape" fill="#FFFFFF"/>
                <path d="M57.7,20.4 C57.7,14.4 52.9,9.6 46.9,9.6 C40.9,9.6 36.1,14.4 36.1,20.4 C36.1,26.4 40.9,31.2 46.9,31.2 C52.9,31.2 57.7,26.4 57.7,20.4" id="Path" fill="#C4D82E"/>
            </g>
        </g>
    </g>
<script xmlns=""/></svg>