<?xml version="1.0" encoding="UTF-8" standalone="no"?>
<!-- Created with Inkscape (http://www.inkscape.org/) -->

<svg
   width="143"
   height="49.5"
   viewBox="0 0 37.835381 13.096875"
   version="1.1"
   id="svg185"
   xml:space="preserve"
   xmlns="http://www.w3.org/2000/svg"
   xmlns:svg="http://www.w3.org/2000/svg"><defs
     id="defs182"><rect
       x="99.612265"
       y="105.78542"
       width="93.158512"
       height="21.606041"
       id="rect664" /><rect
       x="81.373399"
       y="107.46901"
       width="68.465895"
       height="22.728432"
       id="rect658" /></defs><g
     id="layer1"><g
       style="fill:none"
       id="g438"
       transform="matrix(0.26458333,0,0,0.26458333,0.25019647,1.3684047)"><path
         d="m 19.0588,8.70557 h -0.8525 c -2.7697,0 -5.0149,2.24523 -5.0149,5.01483 v 0.8525 c 0,2.7697 2.2452,5.0149 5.0149,5.0149 h 0.8525 c 2.7696,0 5.0148,-2.2452 5.0148,-5.0149 v -0.8525 c 0,-2.7696 -2.2452,-5.01483 -5.0148,-5.01483 z"
         fill="#494fc9"
         id="path402" /><path
         d="m 18.6391,22.852 c -1.1433,10e-5 -2.2753,-0.2251 -3.3316,-0.6626 -1.0562,-0.4375 -2.016,-1.0787 -2.8244,-1.8871 -0.8084,-0.8084 -1.4497,-1.7681 -1.8872,-2.8243 -0.4375,-1.0563 -0.66268,-2.1883 -0.66268,-3.3316 9e-5,-2.3089 0.91738,-4.52317 2.54998,-6.15577 1.6327,-1.63261 3.847,-2.5498 6.1559,-2.54982 1.1823,-0.00141 2.3524,0.2387 3.4385,0.70562 1.0862,0.46691 2.0655,1.15079 2.878,2.00969 0.4204,0.44018 0.9767,0.72611 1.5794,0.81176 0.6026,0.08565 1.2166,-0.03396 1.743,-0.33958 h 5e-4 C 29.7951,7.75284 30.1106,5.68474 28.9056,4.414 27.5852,3.01773 25.9935,1.90597 24.228,1.14694 22.4625,0.387912 20.5606,-0.00238065 18.6389,1.09248e-5 10.8259,1.09248e-5 4.49219,6.33341 4.49219,14.1469 c 0,7.813 6.33341,14.1469 14.14691,14.1469 1.8972,0.0024 3.7754,-0.3781 5.5221,-1.1186 1.7467,-0.7405 3.3261,-1.8258 4.6436,-3.1909 1.2354,-1.2765 0.9535,-3.3705 -0.5849,-4.2587 -0.5236,-0.3039 -1.1338,-0.4239 -1.7335,-0.3408 -0.5996,0.0831 -1.1543,0.3644 -1.5755,0.7991 -0.8113,0.845 -1.7852,1.5169 -2.8631,1.9755 -1.0778,0.4585 -2.2374,0.6941 -3.4087,0.6926 z"
         fill="#494fc9"
         id="path404" /><path
         d="m 18.6354,37.0003 c 7.3464,0 13.8827,-3.4667 18.0634,-8.8533 0.2383,-0.307 0.4081,-0.6615 0.498,-1.0397 0.0899,-0.3781 0.0977,-0.7711 0.0229,-1.1525 -0.0747,-0.3815 -0.2303,-0.7424 -0.4562,-1.0587 -0.2259,-0.3163 -0.517,-0.5805 -0.8536,-0.7748 -0.5686,-0.3288 -1.2371,-0.4405 -1.8817,-0.3145 -0.6447,0.126 -1.2219,0.4812 -1.6249,0.9999 -1.6257,2.1035 -3.7122,3.806 -6.0991,4.9767 -2.3869,1.1706 -5.0104,1.7782 -7.6689,1.7759 -2.6585,0.0023 -5.2821,-0.6053 -7.669,-1.7759 C 8.57947,28.6127 6.49294,26.9102 4.86723,24.8067 4.46421,24.288 3.887,23.9328 3.24236,23.8068 2.59771,23.6808 1.92925,23.7925 1.36059,24.1213 c -0.33658,0.1943 -0.627628,0.4585 -0.853558,0.7748 -0.225929,0.3163 -0.381498,0.6772 -0.4562385,1.0587 -0.0747404,0.3814 -0.0669184,0.7744 0.02294,1.1525 C 0.163592,27.4855 0.333402,27.84 0.571737,28.147 4.75279,33.5336 11.289,37.0003 18.6354,37.0003 Z"
         fill="#494fc9"
         id="path406" /></g><text
       xml:space="preserve"
       style="font-stretch:condensed;font-size:4.66858px;font-family:Arial;-inkscape-font-specification:'Arial, Condensed';opacity:0.49;fill:#000000;stroke-width:0.335572;stroke-opacity:0.994764"
       x="10.178043"
       y="5.3049393"
       id="text602"
       transform="scale(1.0177107,0.98259752)"><tspan
         id="tspan600"
         x="10.178043"
         y="5.3049393"
         style="font-style:normal;font-variant:normal;font-weight:normal;font-stretch:normal;font-size:5.70654px;font-family:Arial;-inkscape-font-specification:Arial;font-variant-ligatures:normal;font-variant-caps:normal;font-variant-numeric:normal;font-variant-east-asian:normal;fill:#ffffff;fill-opacity:1;stroke-width:0.335574"
         dy="1.6805081">Caregiver</tspan><tspan
         x="10.178043"
         y="11.503167"
         style="font-style:normal;font-variant:normal;font-weight:bold;font-stretch:normal;font-size:3.1703px;font-family:Arial;-inkscape-font-specification:'Arial, Bold';font-variant-ligatures:normal;font-variant-caps:normal;font-variant-numeric:normal;font-variant-east-asian:normal;fill:#d45500;fill-opacity:1;stroke-width:0.335574"
         id="tspan654">NETWORK</tspan></text><text
       xml:space="preserve"
       transform="scale(0.26458333)"
       id="text656"
       style="font-stretch:condensed;font-size:13.9341px;font-family:Arial;-inkscape-font-specification:'Arial, Condensed';white-space:pre;shape-inside:url(#rect658);display:inline;opacity:0.49;fill:#000000;stroke-width:1.00157;stroke-opacity:0.994764" /><text
       xml:space="preserve"
       transform="scale(0.26458333)"
       id="text662"
       style="font-style:normal;font-variant:normal;font-weight:bold;font-stretch:normal;font-size:19.6346px;font-family:Arial;-inkscape-font-specification:'Arial, Bold';font-variant-ligatures:normal;font-variant-caps:normal;font-variant-numeric:normal;font-variant-east-asian:normal;white-space:pre;shape-inside:url(#rect664);display:inline;opacity:0.49;fill:#000000;stroke-width:1.00157;stroke-opacity:0.994764" /></g></svg>
