<svg xmlns="http://www.w3.org/2000/svg" aria-labelledby="site-logo" width="297px" height="57px" viewBox="0 0 297 56.7" role="img">
<title id="site-logo">Maria Mallaband logo</title>
<path d="M53.5 38.4c.2-.2.3-.4.5-.5-.2.2-.3.4-.6.6l-.8.8c2.8-2.6 5.4-6.2 7.2-10.2.5-1 .8-2 1.2-3 .3-1 .6-2 .8-2.9.3-.9.4-1.9.6-2.8.2-.9.3-1.7.3-2.6.3-2.3.2-4.3 0-4.6-.1-.2-.1 1.5-.3 3.7 0 .5-.2 1.1-.2 1.5-.2.8-.4 1.6-.6 2.6-.2.9-.5 1.8-.8 2.8-.6 1.9-1.4 3.9-2.5 5.8l.6-1.2.6-1.2c-.3.6-.5 1.2-.8 1.8l-.9 1.8c.1-.1.2-.3.3-.4-1.1 1.9-2.5 4.1-4.1 6-1.5 1.9-3.2 3.5-4.3 4.6-1.1 1-1.5 1.4-1 1.3.4-.2 1.6-.9 3.3-2.5.5-.4 1-.9 1.5-1.4" fill="#019090"/><path d="M59 32c-1.4 2.4-3 4.5-4.8 6.3l-.4.4h.2c.8-1 1.8-2.3 2.8-3.8 1-1.5 2-3.1 2.8-4.9.2-.4.4-.8.5-1.2.3-.6.4-1 .4-1.2 0-.3-.5.7-1.2 2.3-.3.6-.6 1.2-.9 1.7-1.2 2.1-3 4.6-5 6.7S49.5 42 48.5 43c-.5.4 0 .2.2.2-.1.2 1.5-.8 3.3-2.5s3.1-3.4 3.1-3.6c.3-.3.5-.6.8-.9-.2.3-.4.5-.6.8.4-.6 1.7-2.4 2.5-3.8.2-.4.4-.7.6-1 .2-.4.4-.7.6-1.1-.3.4-.6.7-.9 1.1-.2.4-.4.7-.6 1.1l.2-.2c-1.3 2.1-2.6 4-4.4 6-.7.8-1.6 1.6-2.4 2.4-.7.6-.6.6.3 0 .4-.3.8-.6 1.2-1l-.5.4c2.6-2.3 5-5.1 6.8-8.1.3-.5.6-1 .7-1.3.1-.2 0 0-.3.5" fill="#019090"/><path d="M51.3 41.5c-.5.4-.8.7-1.5 1.2-.2.1-.2.2-.3.2l.9-.6c.6-.5.9-.8.8-.8M49.5 42.9c-.2.2-.4.3-.4.3.1 0 .2-.1.3-.2M37.9 53.7q-.3 0 0 0c.2 0 .6.1.9.2q.2 0 0 0c-.3 0-.7-.1-.9-.2" fill="#019090"/><path d="M63.5 11.6c-.8-2.4-2-4.8-3.8-6.8-1.8-2-4.1-3.6-6.9-4.3-2.7-.7-5.5-.6-8.1.3-1.3.4-2.5.9-3.6 1.6-.5.3-1.1.7-1.6 1-.3.2-.5.4-.8.6l-.7.6c-1.9 1.6-3.5 3.5-4.9 5.4l-1.2 1.8c-.7-1-1.4-2.1-2.1-3.1-1.9-2.5-4.3-4.7-7.3-6.4-1.6-.8-3.4-1.5-5.2-1.8-.5 0-.9-.1-1.4-.2h-1.4c-.9 0-1.9.2-2.8.4-1.8.5-3.6 1.4-5 2.6-1.4 1.2-2.6 2.6-3.5 4.1-2 3.1-2.9 6.5-3.2 9.8-.2 1.7-.1 3.4.1 5 .2 1.7.5 3.3.9 4.9.2.7.3 1.3.5 1.9s.4 1.3.7 1.9c.4 1.3 1 2.4 1.5 3.5.3.6.6 1.1.9 1.6.3.5.6 1 .9 1.6.4.5.7 1 1 1.5.4.5.6 1 1 1.4.7.9 1.5 1.8 2.3 2.6l1.2 1.2 1.3 1.2.6.6c.2.2.5.4.7.5.5.4.9.7 1.4 1 .5.4 1 .6 1.5.9l1.5.9c.5.3.3.2.2 0-.2-.1-.5-.3-.7-.4-3.2-2-6.2-4.5-8.6-7.4-2.5-2.9-4.5-6.3-5.9-10-.3-.9-.6-1.8-.9-2.8-.3-.9-.5-1.9-.7-2.8-.5-1.9-.7-3.9-.8-5.9-.1-4 .6-8.3 2.8-12 .5-.8 1-1.7 1.7-2.4.6-.7 1.4-1.5 2.1-2 .2-.1.4-.3.6-.4 1.4-.9 2.9-1.6 4.6-2-.2 0-.3 0-.4.1-.3 0-.6.2-.9.3-1.2.4-2.1 1-2.1 1.1 0 0 .2 0 .4-.2-2 1.1-3.7 2.8-4.9 4.6-1.2 1.8-2 3.8-2.6 5.9-.3 1.2-.5 2.4-.6 3.4-.3 2.4-.3 4.8 0 7.2 0 .6.2 1.2.3 1.8l.4 1.7c.2.6.3 1.2.4 1.7l.6 1.7.4 1.2c.3.7.6 1.4.9 2 .2.3.3.6.4.8s.3.4.4.6c.1.2.2.3.3.4l1 1.8 1.2 1.7c.2.3.4.6.6.8l.6.8.6.8c.2.3.4.5.7.8l1.4 1.5c.2.3.5.5.7.7l.7.7.7.7c.3.2.5.4.8.6.5.4 1 .8 1.6 1.2 2.2 1.6 4.6 2.8 7 3.9s4.9 1.9 7.3 2.6c.5.1.8.2.7.2.2 0 .4.1.6.2.6.2 1.2.3 1.8.4.6.2 1.3.3 2 .4h.3c-.2 0-.5-.1-.7-.2-1.4-.3-2.8-.6-4.1-.9h-.3c-.3-.1-.7-.2-1.2-.4-2.5-.7-4.9-1.7-7.3-2.8l-1.7-.8c-.6-.3-1.2-.6-1.7-.9s-.6-.3-.8-.5l-.8-.5c-.5-.4-1.1-.7-1.6-1.1-2.5-1.8-4.6-3.9-6.6-6.2-.3-.5-.7-.9-1-1.4l-.5-.8c-.4-.6-.7-1.1-1.1-1.7l-.9-1.8c.3.6.6 1.2.9 1.7.3.6.7 1.1 1.1 1.6l.6.8c.2.3.4.5.6.8.4.5.8 1 1.3 1.6 1.8 2 3.8 3.8 6.1 5.4 2.8 1.9 5.7 3.4 8.6 4.6s6.1 2.1 9.4 2.8c.4 0 .6.1.5.1l-.6-.2c-6.7-1.5-12.8-3.9-18.2-7.7-5.3-3.8-9.6-9.3-12-16.1-.2-.5-.4-1.1-.5-1.6 1.4 4.2 3.5 8.1 6.3 11.4 2 2.6 4.5 4.8 7.2 6.7 2.7 1.9 5.6 3.4 8.6 4.6 6 2.4 12.5 3.6 18.8 4.1h1.1s-.5-.1-1.2-.1c-3.6-.3-7.2-.9-10.7-1.7-3.6-.8-7-2-10.3-3.6.5.2.9.4 1.4.6s.9.4 1.4.6c2.2.8 4.4 1.6 6.7 2.1s4.6 1 6.9 1.4c.9.1 1.7.2 2.3.3h1s-.3-.1-.8-.2-1.3-.2-2.1-.3c.3 0 .5 0 .8.1h.4c-.1 0-.5-.1-.7-.1-1-.1-1.9-.3-2.9-.4-4.3-.8-8.7-1.9-12.8-3.7-2-.8-4-1.9-5.9-3.1l-1.4-.9c-.2-.2-.5-.3-.7-.5L16 46l-1.3-1-1.2-1.1c.5.4.9.8 1.4 1.2l1.4 1.1c.5.4 1 .7 1.5 1 .5.3 1 .7 1.5 1 2 1.3 4.2 2.3 6.4 3.2 2.3.9 4.6 1.6 6.9 2.2 2.4.6 4.8 1 7.2 1.4q-.2 0 0 0c.2 0 .6.1.8.1s.2 0 0 0c2.6.3 5.2.5 7.9.6s5.3 0 7.9-.2c.3 0 .6 0 .6-.1h-.6c-4.3.3-8.7.3-13-.1s-8.6-1.2-12.7-2.4S22.6 50 19 47.8c-3.6-2.3-6.8-5.1-9.4-8.5-.5-.7-1-1.5-1.5-2.3-.1-.3-.4-.8-.7-1.6 2.8 5.3 7.2 9.5 12.2 12.6 2.1 1.3 4.3 2.4 6.7 3.3 2.3.9 4.7 1.6 7.1 2.3.7.2 1.3.3 1.3.3s-.5-.2-1.3-.4c-.6-.2-1.2-.3-1.8-.5l-.9-.3-.9-.3c.9.3 1.6.4 1.7.4.1 0-.4-.2-1.2-.5 5.1 1.5 10.4 2.3 15.6 2.5h.4-.7c-1.9-.1-3.7-.3-5.6-.5-1.8-.3-3.7-.6-5.5-1-3.6-.8-7.2-1.9-10.5-3.5-2.6-1.3-5.1-2.8-7.3-4.6s-4.4-3.9-6.2-6.4C7.8 35.1 6.1 31 5 26.9c-.6-2.1-.9-4.2-1-6.3-.1-2.1.1-4.2.6-6.2.8-2.9 2.1-5.7 4.2-7.6-.3.3-.4.5-.4.5-1.7 1.8-3 4.1-3.7 6.7-.8 2.9-.9 6.1-.6 9.2.1.8.2 1.5.4 2.3.2.7.4 1.5.6 2.3l.2.6c0 .2.1.4.2.5l.4 1.1.4 1.1c.1.4.3.7.4 1 1.2 2.8 2.7 5.5 4.7 7.8 1.9 2.4 4.1 4.4 6.6 6.2 2.5 1.7 5.1 3.1 8 4.3 2.8 1.2 5.7 2 8.7 2.7 3 .7 6 1.1 9 1.4s6.1.3 9.2.3c1.6 0 2.7-.2 2.5-.3h-3.2c-5.9.1-11.5-.4-17-1.6-5.5-1.2-10.8-3.1-15.7-6.2-3.5-2.3-6.3-4.9-8.6-8-2.3-3.1-4-6.7-5.2-10.6-.2-.6-.3-1.2-.4-1.8-.2-.6-.3-1.2-.4-1.8-.2-1.2-.4-2.4-.4-3.5-.1-2.3.1-4.7.7-6.8.6-2.2 1.6-4.2 3-6 1.4-1.7 3.2-3 5.3-3.5.8-.2 1.7-.3 2.5-.3h1.4c.4.2.9.2 1.3.3 1.7.5 3.2 1.3 4.7 2.4 1.4 1 2.7 2.4 3.9 3.7 1.2 1.4 2.1 2.9 3 4.5.2.3.3.5.4.8-.3-.5-.6-1.1-.9-1.7-1.1-1.8-2.4-3.6-3.9-5.1-1.5-1.5-3.2-2.8-5-3.6-1.8-.8-3.8-1.3-5.7-1.1-.5 0-.9.2-.8.2h1.1c2.7-.2 5.3.8 7.6 2.5 2.3 1.6 4.3 3.9 5.9 6.3.6.9 1.2 1.8 1.6 2.8-.9 2.3-1.7 4.6-2.2 7-.5 2.4-.8 5-.3 7.8.2.8.4 1.9 1.1 3 .4.5.8 1 1.5 1.5.7.4 1.5.7 2.4.7.9 0 1.8-.3 2.5-.8s1.2-1 1.5-1.6c.3-.6.5-1.1.7-1.6V32c.1 0 .1-.3.1-.3l.2-.7c.3-1.8.2-3.5 0-5.1-.4-3.2-1.4-6.1-2.5-9 .7-1.5 1.4-2.8 2.3-4 .1-.2.3-.3.4-.5 1.7-2.2 3.9-4.5 6.4-5.9 1.3-.7 2.6-1.2 4-1.5.4 0 .7 0 1-.1h1c.7 0 1.3.1 1.9.3-.1 0-.2-.1-.3-.2.9.3 1.5.5 2.4 1-.3-.2-.5-.3-.7-.5 1 .6 2.1 1.4 3.1 2.5 1 1.3 2 2.9 2.6 4.8.6 1.9 1 4 1 6.3 0 1.1 0 2.3-.2 3.4s-.4 2.3-.6 3.4c-.5 2.3-1.3 4.5-2.2 6.6-.3.6-.6 1.2-.6 1.3s.3-.3.5-.9c1.2-2.4 2-4.8 2.7-7.6.6-2.6.8-5.1.6-7.7-.2-2.6-.8-5.1-2.1-7.4-.2-.3-.3-.5-.5-.8-.2-.4-.5-.7-.7-1.1v.2c.5.5.8.9 1 1.5 0-.1-.1-.2-.2-.3 1.2 1.9 1.9 4.1 2.3 6.4.3 2.2.3 4.5 0 6.9l-.2.9-.2.9c-.1.6-.3 1.2-.4 1.8-.2.6-.3 1.2-.5 1.8l-.6 1.8c-1.6 4.7-4.3 8.9-7.3 12-.6.6-.9.9-.8.9.1 0 .7-.5 1.2-1.1 1.5-1.5 2.9-3.2 4.1-5.1s2.1-3.7 2.9-5.6c0-.2 0 .1.1-.2 0-.2.1-.3.2-.4l-.6 1.5c-.2.5-.4.9-.5 1.3s-.3.6-.4.9c-.3.5-.4.8-.5 1v.2c-.2.2-.4.4-.5.7 0 0 0 .1-.1.2-.2.3-.4.5-.5.8-.2.3-.4.6-.5.8l-.3.3c-.5.7-.8 1.1-1.2 1.5-.2.2-.3.4-.5.6-.2.2-.4.5-.8.8l-1 1-.6.6c-.2.2-.5.5-1.3 1.1h.1c.1-.2.3-.3.6-.5 0 .1-.2.3-.5.5h.2c0-.1-.3.1-.3.1l-.2.3h-.2c-.2.2-.5.4-1.1.8-.1 0-.3.3-.9.7 0 0-.2.1-.3.2 0 0-.2.2-.5.4-.4.3 0 0 0 0 .1 0 .2-.1.2-.1s.2-.1.4-.3.3-.2 1.2-.8c0 0-.2.1-.2.2q-.1.2 1-.5s.2-.1.4-.3.7-.5 1.2-.9c.5-.5.8-.7 1-1s.6-.5 1.2-1.2l.7-.7c.3-.3.4-.4.6-.7-.2.3-.4.5-.5.7-.5.6-.5.7 0 .3-.5.7 0 .4.7-.3-.2.3-.2.4-.2.4-.4.5-.7.9-.9 1.3-.2.3-.4.6-.5.7v.2c.3-.2 1.1-.9 2.1-2.1l.3-.4-.2.4c.4-.4.8-.8 1.3-1.4.2-.3.5-.6.7-.8.2-.3.5-.6.7-.9.3-.3.5-.6.7-1 .2-.3.5-.7.6-1 .4-.7.8-1.3 1.1-1.8.3-.6.6-1.1.8-1.7.6-1.3 1.4-3.3 2-5.8l.3-1.3c.1-.5.2-.9.3-1.4.1-.6.2-1.2.2-1.7-.1 1.5-.2 2.6-.3 3.3 0 .7 0 1 .1.7.1-.2.3-.7.5-1.6.2-.8.4-2 .5-3.4.3-2.7.1-6.3-1.1-10M32.8 29.9c0 .3-.2.5-.2.8 0 .3-.2.5-.3.7-.1.2-.2.3-.3.3 0-.2-.2-.3-.2-.5 0-.1-.1-.3-.1-.4s0-.4-.1-.6v-2.7c0-.5 0-.9.2-1.5.1-.9.3-1.9.6-2.8.2.8.4 1.7.5 2.6.2 1.4.3 2.9.1 4.2m19.1 11.9.4-.4-.4.4m3.2-1.3h-.1c.3-.4.5-.8.7-1.3-.2.4-.4.9-.6 1.3m3.4-8c-.1.2-.2.4-.4.6l.4-.6c.2-.3.1-.2 0 0m2.2-11.3c0 .9-.2 1.9-.3 2.8-.1.5-.3 1-.4 1.6s-.3 1.2-.5 1.8c.2-.6.3-1.2.5-1.7 0-.3.2-.6.2-.9 0-.3.1-.6.2-.9.2-1.3.3-2.5.4-3.7.1-2.7-.3-5.3-1.1-7.8l.3.9c.1.3.3.8.2.5.6 2.4.8 4.9.7 7.5M31.6 27.7Z" fill="#019090"/><path d="M77.4 23.2V5.8c0-.6.4-1 1-1h1.3c.5 0 .9.2 1.2.6l5.7 8.3c.2.3.5.3.7 0l5.9-8.3c.3-.5.7-.6 1.3-.6h1.2c.7 0 1 .4 1 1v17.4c0 .5-.3.8-.8.8h-1.8c-.5 0-.8-.3-.8-.8V11.8c0-.5-.3-.6-.6-.2l-4.2 6.1c-.3.5-.7.6-1.2.6h-.2c-.5 0-.9-.2-1.2-.6l-4.2-6.1c-.3-.4-.6-.3-.6.2v11.4c0 .5-.3.8-.8.8h-1.9c-.5 0-.8-.3-.8-.8ZM106.4 10.1c1.5 0 2.8.5 3.9 1.4.3.3.6.2.7-.2V11c.3-.5.6-.7 1-.7h.8c.5 0 .8.3.8.8v12c0 .5-.3.8-.8.8h-.6c-.5 0-.8-.2-1-.7l-.2-.4c-.2-.4-.4-.4-.7-.2-1 .9-2.4 1.4-3.9 1.4-4.5 0-7.4-3-7.4-7.2s3-7.1 7.3-7.1v.2Zm.2 11.1c1.4 0 2.6-.7 3.2-1.8.2-.2.2-.4.2-.6v-3.2c0-.3 0-.5-.2-.7-.7-1-1.9-1.7-3.2-1.7-2.1 0-3.8 1.7-3.8 3.9s1.6 4 3.8 4ZM116.9 23.2v-12c0-.5.3-.8.8-.8h.8c.5 0 .8.2.9.7v.3c.3.5.7.6 1.1.3 1.4-1 2.8-1.5 4.1-1.5h.7c.5.1.7.5.7.9l-.2 1.9c0 .6-.4.7-.9.7h-.9c-1 0-1.9.4-3 1.2-.4.3-.5.5-.5.9v7.5c0 .5-.3.8-.8.8h-2c-.5 0-.8-.3-.8-.8ZM127.4 6c0-1.3 1-2.4 2.4-2.4s2.5 1.1 2.5 2.4-1.2 2.5-2.5 2.5-2.4-1.1-2.4-2.5Zm4.1 5.2v12c0 .5-.3.8-.8.8h-2c-.5 0-.8-.3-.8-.8v-12c0-.5.3-.8.8-.8h2c.5 0 .8.3.8.8ZM141.2 10.1c1.5 0 2.8.5 3.9 1.4.3.3.6.2.7-.2V11c.3-.5.6-.7 1-.7h.8c.5 0 .8.3.8.8v12c0 .5-.3.8-.8.8h-.6c-.5 0-.8-.2-1-.7l-.2-.4c-.2-.4-.4-.4-.7-.2-1 .9-2.4 1.4-3.9 1.4-4.5 0-7.4-3-7.4-7.2s3-7.1 7.3-7.1v.2Zm.2 11.1c1.4 0 2.6-.7 3.2-1.8.2-.2.2-.4.2-.6v-3.2c0-.3 0-.5-.2-.7-.7-1-1.9-1.7-3.2-1.7-2.1 0-3.8 1.7-3.8 3.9s1.6 4 3.8 4ZM157.9 23.2V5.8c0-.6.4-1 1-1h1.3c.5 0 .9.2 1.2.6l5.7 8.3c.2.3.5.3.7 0l5.9-8.3c.3-.5.7-.6 1.3-.6h1.2c.7 0 1 .4 1 1v17.4c0 .5-.3.8-.8.8h-1.8c-.5 0-.8-.3-.8-.8V11.8c0-.5-.3-.6-.6-.2l-4.2 6.1c-.3.5-.7.6-1.2.6h-.2c-.5 0-.9-.2-1.2-.6l-4.2-6.1c-.3-.4-.6-.3-.6.2v11.4c0 .5-.3.8-.8.8h-1.9c-.5 0-.8-.3-.8-.8ZM186.9 10.1c1.5 0 2.8.5 3.9 1.4.3.3.6.2.7-.2V11c.3-.5.6-.7 1-.7h.8c.5 0 .8.3.8.8v12c0 .5-.3.8-.8.8h-.6c-.5 0-.8-.2-1-.7l-.2-.4c-.2-.4-.4-.4-.7-.2-1 .9-2.4 1.4-3.9 1.4-4.5 0-7.4-3-7.4-7.2s3-7.1 7.3-7.1v.2Zm.2 11.1c1.4 0 2.6-.7 3.2-1.8.2-.2.2-.4.2-.6v-3.2c0-.3 0-.5-.2-.7-.7-1-1.9-1.7-3.2-1.7-2.1 0-3.8 1.7-3.8 3.9s1.6 4 3.8 4ZM197.3 4.3c0-.5.3-.8.8-.8h2c.5 0 .8.3.8.8v15c0 1.1.4 1.7 1.5 1.7s.9 0 1.4-.2c.6-.2.9 0 1 .6l.2 1.4c0 .5-.2.9-.6 1-.7.3-1.7.4-2.6.4-2.4 0-4.5-1.3-4.5-4.9v-15ZM206.5 4.3c0-.5.3-.8.8-.8h2c.5 0 .8.3.8.8v15c0 1.1.4 1.7 1.5 1.7s.9 0 1.4-.2c.6-.2.9 0 1 .6l.2 1.4c0 .5-.2.9-.6 1-.7.3-1.7.4-2.6.4-2.4 0-4.5-1.3-4.5-4.9v-15ZM222 10.1c1.5 0 2.8.5 3.9 1.4.3.3.6.2.7-.2V11c.3-.5.6-.7 1-.7h.8c.5 0 .8.3.8.8v12c0 .5-.3.8-.8.8h-.6c-.5 0-.8-.2-1-.7l-.2-.4c-.2-.4-.4-.4-.7-.2-1 .9-2.4 1.4-3.9 1.4-4.5 0-7.4-3-7.4-7.2s3-7.1 7.3-7.1v.2Zm.2 11.1c1.4 0 2.6-.7 3.2-1.8.2-.2.2-.4.2-.6v-3.2c0-.3 0-.5-.2-.7-.7-1-1.9-1.7-3.2-1.7-2.1 0-3.8 1.7-3.8 3.9s1.6 4 3.8 4ZM232.5 4.3c0-.5.3-.8.8-.8h1.8c.5 0 .8.3.8.8v6.1c0 .6.4.8.9.5.9-.5 2-.8 3.3-.8 3.9 0 7 3.1 7 7.1s-3 7.2-7 7.2-3.1-.5-4.1-1.3c-.4-.4-.8-.3-1 .3v.2c-.3.5-.6.7-1 .7h-.6c-.5 0-.8-.3-.8-.8V4.3Zm3.8 15c.7 1.1 1.9 1.8 3.5 1.8s3.6-1.8 3.6-4-1.6-3.9-3.6-3.9-2.8.7-3.4 1.8c-.2.3-.3.6-.3.9v2.6c0 .3 0 .6.2.9ZM256 10.1c1.5 0 2.8.5 3.9 1.4.3.3.6.2.7-.2V11c.3-.5.6-.7 1-.7h.8c.5 0 .8.3.8.8v12c0 .5-.3.8-.8.8h-.6c-.5 0-.8-.2-1-.7l-.2-.4c-.2-.4-.4-.4-.7-.2-1 .9-2.4 1.4-3.9 1.4-4.5 0-7.4-3-7.4-7.2s3-7.1 7.3-7.1v.2Zm.2 11.1c1.4 0 2.6-.7 3.2-1.8.2-.2.2-.4.2-.6v-3.2c0-.3 0-.5-.2-.7-.7-1-1.9-1.7-3.2-1.7-2.1 0-3.8 1.7-3.8 3.9s1.6 4 3.8 4ZM266.5 23.2v-12c0-.5.3-.8.8-.8h.9c.5 0 .8.3.9.7v.2c.2.5.6.6 1 .4 1.6-.9 3-1.5 5-1.5 3 0 4.8 2 4.8 5.6v7.5c0 .5-.3.8-.8.8h-2c-.5 0-.8-.3-.8-.8v-7.4c0-1.5-.8-2.5-2.4-2.5s-2.4.5-3.5 1.3c-.4.2-.5.5-.5.9v7.8c0 .5-.3.8-.8.8h-1.9c-.5 0-.8-.3-.8-.8ZM289.6 10.1c1.1 0 2.1.3 3 .7.5.3.8.1.8-.5v-6c0-.5.3-.8.8-.8h1.9c.5 0 .8.3.8.8v18.9c0 .5-.3.8-.8.8h-.5c-.5 0-.8-.2-.9-.6l-.2-.3c-.2-.5-.6-.6-1-.2-1 .9-2.3 1.4-3.9 1.4-4.4 0-7.3-3-7.3-7.2s3-7.1 7.2-7.1Zm.3 11.1c1.5 0 2.7-.8 3.3-1.8.2-.3.2-.6.2-.9v-2.6c0-.4 0-.6-.2-.9-.7-1.1-1.9-1.8-3.3-1.8-2.1 0-3.7 1.7-3.7 3.9s1.6 4 3.7 4ZM85.6 33.5c4.6 0 7.8 3.1 8.3 6.7 0 .3-.1.5-.5.5h-.9c-.3 0-.5-.2-.5-.4-.6-2.9-2.9-5-6.4-5s-7.2 2.9-7.2 7.3 3.4 7.3 7.2 7.3 5.6-1.6 6.4-4.2c.1-.3.3-.4.6-.4h.9c.3 0 .5.2.4.5-.9 3.4-4.2 5.8-8.3 5.8s-9.1-3.7-9.1-9.1 4.2-9.1 9.1-9.1ZM102.3 38.6c1.6 0 3 .6 4.1 1.6s.5.2.5-.2v-.8c.1-.3.3-.4.6-.4h.3c.3 0 .5.2.5.5v11.6c0 .3-.2.5-.5.5h-.3c-.3 0-.5-.2-.5-.4v-.9c-.1-.3-.4-.4-.6-.2-1 1.1-2.5 1.7-4.1 1.7-3.8 0-6.5-2.8-6.5-6.5s2.8-6.5 6.5-6.5Zm.1 11.4c1.8 0 3.1-.9 4-2.4.1-.2.2-.3.2-.5V43c0-.2 0-.3-.2-.5-.8-1.5-2.3-2.4-4-2.4-2.7 0-4.8 2.1-4.8 4.9s2.1 5 4.8 5ZM112 50.9V39.3c0-.3.2-.5.5-.5h.4c.3 0 .5.2.5.4v.4c.1.6.5.7 1 .3 1.4-.9 2.6-1.5 3.7-1.5s.6 0 .9.1c.3 0 .4.3.4.6v.8c-.1.3-.4.5-.7.4-.3 0-.6-.1-.9-.1-.9 0-2.1.5-3.5 1.6-.3.3-.5.6-.5 1v8c0 .3-.2.5-.5.5h-.8c-.3 0-.5-.2-.5-.5ZM125.8 38.6c3.4 0 5.8 2.8 5.8 6.2s-.3.7-.8.7h-8.6c-.5 0-.8.3-.7.8.5 2.2 2.1 3.7 4.4 3.7s3.1-.8 3.7-2.1c.1-.3.3-.4.6-.4h.7c.3 0 .5.2.4.5-.6 2-2.7 3.6-5.3 3.6s-6.2-2.8-6.2-6.5 2.7-6.5 6.2-6.5h-.2Zm-3.4 5.4h6.5c.6 0 .9-.3.7-.9-.5-1.7-1.9-3-3.8-3s-3.4 1.2-4.1 3c-.2.5.1.9.7.9ZM157.7 43.8v.6c0 .3-.2.5-.5.5h-.6c-.7 4.3-4.1 6.7-8.1 6.7s-9.1-3.7-9.1-9.1 4.2-9 9.1-9 7.5 2.8 8.1 6.3c0 .3-.1.5-.5.5h-.8c-.3 0-.5-.2-.5-.5-.6-2.8-2.9-4.7-6.3-4.7s-7.1 2.8-7.1 7.3 3.4 7.3 7.2 7.3 5.4-1.2 6.4-4.9h-5.3c-.3 0-.5-.2-.5-.5v-.6c0-.3.2-.5.5-.5h7.6c.3 0 .5.2.5.5ZM160.1 50.9V39.3c0-.3.2-.5.5-.5h.4c.3 0 .5.2.5.4v.4c.1.6.5.7 1 .3 1.4-.9 2.6-1.5 3.7-1.5s.6 0 .9.1c.3 0 .4.3.4.6v.8c-.1.3-.4.5-.7.4-.3 0-.6-.1-.9-.1-.9 0-2.1.5-3.5 1.6-.3.3-.5.6-.5 1v8c0 .3-.2.5-.5.5h-.8c-.3 0-.5-.2-.5-.5ZM174.3 38.6c3.8 0 6.5 2.9 6.5 6.5s-2.7 6.5-6.5 6.5-6.5-2.9-6.5-6.5 2.7-6.5 6.5-6.5Zm0 11.4c2.8 0 4.7-2.2 4.7-5s-1.9-5-4.7-5-4.8 2.2-4.8 5 2 5 4.8 5ZM183.4 39.3c0-.3.2-.5.5-.5h.8c.3 0 .5.2.5.5v7.1c0 2.1 1.5 3.7 3.7 3.6 2.2 0 3.8-1.5 3.8-3.6v-7.1c0-.3.2-.5.5-.5h.8c.3 0 .5.2.5.5v7.1c0 3.1-2.3 5.3-5.6 5.3s-5.6-2.2-5.6-5.3v-7.1ZM197.8 56.2V39.3c0-.3.2-.5.5-.5h.4c.3 0 .5.2.5.5v.4c.1.7.4.7.9.3 1-.9 2.4-1.4 4-1.4 3.5 0 6.2 2.8 6.2 6.5s-2.8 6.5-6.3 6.5-2.8-.4-3.8-1.3c-.6-.5-.9-.4-.9.4v5.5c0 .3-.2.5-.5.5h-.7c-.3 0-.5-.2-.5-.5Zm2.1-8.5c.9 1.4 2.3 2.3 4.1 2.3s4.6-2.2 4.6-5-2.1-4.9-4.6-4.9-3.3.9-4.1 2.3c-.2.3-.3.6-.3.9v3.4c0 .4 0 .6.3.9Z" fill="#5c698d"/><script xmlns=""/></svg>